<?xml version="1.0" encoding="UTF-8" standalone="no"?>
<svg xmlns="http://www.w3.org/2000/svg"
     xmlns:xlink="http://www.w3.org/1999/xlink"
     width="576pt" height="432pt" viewBox="0 0 576 432">
<title>gl2ps_renderer figure</title>
<desc>
Creator: GL2PS 1.4.0, (C) 1999-2017 C. Geuzaine
For: Octave
CreationDate: Sat Oct 20 19:02:38 2018
</desc>
<defs>
</defs>
<polygon fill="#ffffff" points="0,0 576,0 576,432 0,432"/>
<g>
<polygon fill="#ffffff" points="0,432 576,432 576,0 0,0" shape-rendering="crispEdges"/>
<clipPath id="cp00576432">
  <polygon points="0,432 576,432 576,0 0,0"/>
</clipPath>
<g clip-path="url(#cp00576432)">
<polygon fill="#ffffff" shape-rendering="crispEdges" points="74.88,384.486 521.28,384.486 74.88,32.4185"/>
<polygon fill="#ffffff" shape-rendering="crispEdges" points="521.28,384.486 521.28,32.4185 74.88,32.4185"/>
<polyline fill="none" stroke="#262626" stroke-width="0.5" stroke-linecap="butt" stroke-linejoin="miter" points="74.88,384.486 74.88,380.03"/>
<polyline fill="none" stroke="#262626" stroke-width="0.5" stroke-linecap="butt" stroke-linejoin="miter" points="74.88,32.4185 74.88,36.8745"/>
<polyline fill="none" stroke="#262626" stroke-width="0.5" stroke-linecap="butt" stroke-linejoin="miter" points="164.16,384.486 164.16,380.03"/>
<polyline fill="none" stroke="#262626" stroke-width="0.5" stroke-linecap="butt" stroke-linejoin="miter" points="164.16,32.4185 164.16,36.8745"/>
<polyline fill="none" stroke="#262626" stroke-width="0.5" stroke-linecap="butt" stroke-linejoin="miter" points="253.44,384.486 253.44,380.03"/>
<polyline fill="none" stroke="#262626" stroke-width="0.5" stroke-linecap="butt" stroke-linejoin="miter" points="253.44,32.4185 253.44,36.8745"/>
<polyline fill="none" stroke="#262626" stroke-width="0.5" stroke-linecap="butt" stroke-linejoin="miter" points="342.72,384.486 342.72,380.03"/>
<polyline fill="none" stroke="#262626" stroke-width="0.5" stroke-linecap="butt" stroke-linejoin="miter" points="342.72,32.4185 342.72,36.8745"/>
<polyline fill="none" stroke="#262626" stroke-width="0.5" stroke-linecap="butt" stroke-linejoin="miter" points="432,384.486 432,380.03"/>
<polyline fill="none" stroke="#262626" stroke-width="0.5" stroke-linecap="butt" stroke-linejoin="miter" points="432,32.4185 432,36.8745"/>
<polyline fill="none" stroke="#262626" stroke-width="0.5" stroke-linecap="butt" stroke-linejoin="miter" points="521.28,384.486 521.28,380.03"/>
<polyline fill="none" stroke="#262626" stroke-width="0.5" stroke-linecap="butt" stroke-linejoin="miter" points="521.28,32.4185 521.28,36.8745"/>
<text xml:space="preserve" transform="translate(65.88,400.481) rotate(-0,9,-11)" font-family="FreeSans" font-weight="normal" font-style="normal" font-size="10"><tspan y="-1" fill="rgb(38,38,38)" x="0 6 12 ">100</tspan></text>
<text xml:space="preserve" transform="translate(155.16,400.481) rotate(-0,9,-11)" font-family="FreeSans" font-weight="normal" font-style="normal" font-size="10"><tspan y="-1" fill="rgb(38,38,38)" x="0 6 12 ">120</tspan></text>
<text xml:space="preserve" transform="translate(244.44,400.481) rotate(-0,9,-11)" font-family="FreeSans" font-weight="normal" font-style="normal" font-size="10"><tspan y="-1" fill="rgb(38,38,38)" x="0 6 12 ">140</tspan></text>
<text xml:space="preserve" transform="translate(333.72,400.481) rotate(-0,9,-11)" font-family="FreeSans" font-weight="normal" font-style="normal" font-size="10"><tspan y="-1" fill="rgb(38,38,38)" x="0 6 12 ">160</tspan></text>
<text xml:space="preserve" transform="translate(423,400.481) rotate(-0,9,-11)" font-family="FreeSans" font-weight="normal" font-style="normal" font-size="10"><tspan y="-1" fill="rgb(38,38,38)" x="0 6 12 ">180</tspan></text>
<text xml:space="preserve" transform="translate(512.28,400.481) rotate(-0,9,-11)" font-family="FreeSans" font-weight="normal" font-style="normal" font-size="10"><tspan y="-1" fill="rgb(38,38,38)" x="0 6 12 ">200</tspan></text>
<polyline fill="none" stroke="#262626" stroke-width="0.5" stroke-linecap="butt" stroke-linejoin="miter" points="74.88,384.486 79.348,384.486"/>
<polyline fill="none" stroke="#262626" stroke-width="0.5" stroke-linecap="butt" stroke-linejoin="miter" points="521.28,384.486 516.812,384.486"/>
<polyline fill="none" stroke="#262626" stroke-width="0.5" stroke-linecap="butt" stroke-linejoin="miter" points="74.88,296.486 79.348,296.486"/>
<polyline fill="none" stroke="#262626" stroke-width="0.5" stroke-linecap="butt" stroke-linejoin="miter" points="521.28,296.486 516.812,296.486"/>
<polyline fill="none" stroke="#262626" stroke-width="0.5" stroke-linecap="butt" stroke-linejoin="miter" points="74.88,208.459 79.348,208.459"/>
<polyline fill="none" stroke="#262626" stroke-width="0.5" stroke-linecap="butt" stroke-linejoin="miter" points="521.28,208.459 516.812,208.459"/>
<polyline fill="none" stroke="#262626" stroke-width="0.5" stroke-linecap="butt" stroke-linejoin="miter" points="74.88,120.432 79.348,120.432"/>
<polyline fill="none" stroke="#262626" stroke-width="0.5" stroke-linecap="butt" stroke-linejoin="miter" points="521.28,120.432 516.812,120.432"/>
<polyline fill="none" stroke="#262626" stroke-width="0.5" stroke-linecap="butt" stroke-linejoin="miter" points="74.88,32.4185 79.348,32.4185"/>
<polyline fill="none" stroke="#262626" stroke-width="0.5" stroke-linecap="butt" stroke-linejoin="miter" points="521.28,32.4185 516.812,32.4185"/>
<text xml:space="preserve" transform="translate(48.8755,389.98) rotate(-0,21,-5.5)" font-family="FreeSans" font-weight="normal" font-style="normal" font-size="10"><tspan y="-1" fill="rgb(38,38,38)" x="0 6 12 15 ">99.9</tspan></text>
<text xml:space="preserve" transform="translate(42.8755,301.96) rotate(-0,27,-5.5)" font-family="FreeSans" font-weight="normal" font-style="normal" font-size="10"><tspan y="-1" fill="rgb(38,38,38)" x="0 6 12 15 21 ">99.95</tspan></text>
<text xml:space="preserve" transform="translate(51.8755,213.94) rotate(-0,18,-5.5)" font-family="FreeSans" font-weight="normal" font-style="normal" font-size="10"><tspan y="-1" fill="rgb(38,38,38)" x="0 6 12 ">100</tspan></text>
<text xml:space="preserve" transform="translate(36.8755,125.92) rotate(-0,33,-5.5)" font-family="FreeSans" font-weight="normal" font-style="normal" font-size="10"><tspan y="-1" fill="rgb(38,38,38)" x="0 6 12 18 21 27 ">100.05</tspan></text>
<text xml:space="preserve" transform="translate(42.8755,37.9) rotate(-0,27,-5.5)" font-family="FreeSans" font-weight="normal" font-style="normal" font-size="10"><tspan y="-1" fill="rgb(38,38,38)" x="0 6 12 18 21 ">100.1</tspan></text>
<polyline fill="none" stroke="#262626" stroke-width="0.5" stroke-linecap="square" stroke-linejoin="miter" stroke-dasharray="16,0" points="74.88,384.486 521.28,384.486"/>
<polyline fill="none" stroke="#262626" stroke-width="0.5" stroke-linecap="square" stroke-linejoin="miter" stroke-dasharray="16,0" points="74.88,32.4185 521.28,32.4185"/>
<polyline fill="none" stroke="#262626" stroke-width="0.5" stroke-linecap="square" stroke-linejoin="miter" stroke-dasharray="16,0" points="74.88,384.486 74.88,32.4185"/>
<polyline fill="none" stroke="#262626" stroke-width="0.5" stroke-linecap="square" stroke-linejoin="miter" stroke-dasharray="16,0" points="521.28,384.486 521.28,32.4185"/>
<polyline fill="none" stroke="#0000ff" stroke-width="0.5" stroke-linecap="butt" stroke-linejoin="round" points="75.8139,290.606 91.7254,339.042 106.2,324.488 119.569,273.388 133.173,248.55 148.166,252.558 164.46,289.802 180.523,345.661 195.023,331.686 208.284,274.351 221.747,246.823 236.699,249.961 253.111,288.563 269.34,352.556 283.88,340.018 297.033,275.748 310.347,245.254 325.242,247.337 341.767,286.835 358.175,359.517 372.771,349.629 385.822,277.66 398.977,243.87 413.796,244.727 430.425,284.528 447.025,366.214 461.696,360.558 474.655,280.23 487.644,242.736 502.367,242.222 519.083,281.615 521.28,253.178"/>
<polyline fill="none" stroke="#ff0000" stroke-width="0.5" stroke-linecap="butt" stroke-linejoin="round" points="83.7998,333.215 95.0857,80.499 106.491,345.45 117.805,66.498 128.942,346.267 140.009,78.1128 151.171,336.142 162.472,76.7417 173.809,346.056 185.052,69.5171 196.189,343.314 207.316,78.0337 218.528,338.634 229.819,74.6719 241.103,345.555 252.311,71.7979 263.463,341.877 274.634,77.3086 285.868,340.453 297.14,73.7622 308.388,344.685 319.583,73.314 330.755,341.363 341.953,76.4385 353.194,341.613 364.446,73.5249 375.673,343.854 386.867,74.1973 398.056,341.35 409.27,75.7002 420.508,342.246 431.746,73.6304 442.961,343.195 454.159,74.6587 465.361,341.534 476.583,75.1597 487.816,342.549 499.042,73.8809 510.253,342.747 521.28,83.3994"/>
<polyline fill="none" stroke="#00ff00" stroke-width="0.5" stroke-linecap="butt" stroke-linejoin="round" points="74.88,208.459 75.7728,208.459 76.6656,208.459 77.5584,208.459 78.4512,208.459 79.344,208.459 80.2368,208.459 81.1296,208.459 82.0224,208.459 82.9152,208.459 83.808,208.459 84.7008,208.459 85.5936,208.459 86.4864,208.459 87.3792,208.459 88.272,208.459 89.1648,208.459 90.0576,208.459 90.9503,208.459 91.8432,208.459 92.736,208.459 93.6288,208.459 94.5216,208.459 95.4144,208.459 96.3072,208.459 97.2,208.459 98.0928,208.459 98.9856,208.459 99.8784,208.459 100.771,208.459 101.664,208.459 102.557,208.459 103.45,208.459 104.342,208.459 105.235,208.459 106.128,208.459 107.021,208.459 107.914,208.459 108.806,208.459 109.699,208.459 110.592,208.459 111.485,208.459 112.378,208.459 113.27,208.459 114.163,208.459 115.056,208.459 115.949,208.459 116.842,208.459 117.734,208.459 118.627,208.459 119.52,208.459 120.413,208.459 121.306,208.459 122.198,208.459 123.091,208.459 123.984,208.459 124.877,208.459 125.77,208.459 126.662,208.459 127.555,208.459 128.448,208.459 129.341,208.459 130.234,208.459 131.126,208.459 132.019,208.459 132.912,208.459 133.805,208.459 134.698,208.459 135.59,208.459 136.483,208.459 137.376,208.459 138.269,208.459 139.162,208.459 140.054,208.459 140.947,208.459 141.84,208.459 142.733,208.459 143.626,208.459 144.518,208.459 145.411,208.459 146.304,208.459 147.197,208.459 148.09,208.459 148.982,208.459 149.875,208.459 150.768,208.459 151.661,208.459 152.554,208.459 153.446,208.459 154.339,208.459 155.232,208.459 156.125,208.459 157.018,208.459 157.91,208.459 158.803,208.459 159.696,208.459 160.589,208.459 161.482,208.459 162.374,208.459 163.267,208.459 164.16,208.459 165.053,208.459 165.946,208.459 166.838,208.459 167.731,208.459 168.624,208.459 169.517,208.459 170.41,208.459 171.302,208.459 172.195,208.459 173.088,208.459 173.981,208.459 174.874,208.459 175.766,208.459 176.659,208.459 177.552,208.459 178.445,208.459 179.338,208.459 180.23,208.459 181.123,208.459 182.016,208.459 182.909,208.459 183.802,208.459 184.694,208.459 185.587,208.459 186.48,208.459 187.373,208.459 188.266,208.459 189.158,208.459 190.051,208.459 190.944,208.459 191.837,208.459 192.73,208.459 193.622,208.459 194.515,208.459 195.408,208.459 196.301,208.459 197.194,208.459 198.086,208.459 198.979,208.459 199.872,208.459 200.765,208.459 201.658,208.459 202.55,208.459 203.443,208.459 204.336,208.459 205.229,208.459 206.122,208.459 207.014,208.459 207.907,208.459 208.8,208.459 209.693,208.459 210.586,208.459 211.478,208.459 212.371,208.459 213.264,208.459 214.157,208.459 215.05,208.459 215.942,208.459 216.835,208.459 217.728,208.459 218.621,208.459 219.514,208.459 220.406,208.459 221.299,208.459 222.192,208.459 223.085,208.459 223.978,208.459 224.87,208.459 225.763,208.459 226.656,208.459 227.549,208.459 228.442,208.459 229.334,208.459 230.227,208.459 231.12,208.459 232.013,208.459 232.906,208.459 233.798,208.459 234.691,208.459 235.584,208.459 236.477,208.459 237.37,208.459 238.262,208.459 239.155,208.459 240.048,208.459 240.941,208.459 241.834,208.459 242.726,208.459 243.619,208.459 244.512,208.459 245.405,208.459 246.298,208.459 247.19,208.459 248.083,208.459 248.976,208.459 249.869,208.459 250.762,208.459 251.654,208.459 252.547,208.459 253.44,208.459 254.333,208.459 255.226,208.459 256.118,208.459 257.011,208.459 257.904,208.459 258.797,208.459 259.69,208.459 260.582,208.459 261.475,208.459 262.368,208.459 263.261,208.459 264.154,208.459 265.046,208.459 265.939,208.459 266.832,208.459 267.725,208.459 268.617,208.459 269.51,208.459 270.403,208.459 271.296,208.459 272.189,208.459 273.082,208.459 273.974,208.459 274.867,208.459 275.76,208.459 276.653,208.459 277.546,208.459 278.438,208.459 279.331,208.459 280.224,208.459 281.117,208.459 282.01,208.459 282.902,208.459 283.795,208.459 284.688,208.459 285.581,208.459 286.474,208.459 287.366,208.459 288.259,208.459 289.152,208.459 290.045,208.459 290.938,208.459 291.83,208.459 292.723,208.459 293.616,208.459 294.509,208.459 295.402,208.459 296.294,208.459 297.187,208.459 298.08,208.459 298.973,208.459 299.866,208.459 300.758,208.459 301.651,208.459 302.544,208.459 303.437,208.459 304.33,208.459 305.222,208.459 306.115,208.459 307.008,208.459 307.901,208.459 308.794,208.459 309.686,208.459 310.579,208.459 311.472,208.459 312.365,208.459 313.258,208.459 314.15,208.459 315.043,208.459 315.936,208.459 316.829,208.459 317.722,208.459 318.614,208.459 319.507,208.459 320.4,208.459 321.293,208.459 322.186,208.459 323.078,208.459 323.971,208.459 324.864,208.459 325.757,208.459 326.65,208.459 327.542,208.459 328.435,208.459 329.328,208.459 330.221,208.459 331.114,208.459 332.006,208.459 332.899,208.459 333.792,208.459 334.685,208.459 335.578,208.459 336.47,208.459 337.363,208.459 338.256,208.459 339.149,208.459 340.042,208.459 340.934,208.459 341.827,208.459 342.72,208.459 343.613,208.459 344.505,208.459 345.398,208.459 346.291,208.459 347.184,208.459 348.077,208.459 348.97,208.459 349.862,208.459 350.755,208.459 351.648,208.459 352.541,208.459 353.434,208.459 354.326,208.459 355.219,208.459 356.112,208.459 357.005,208.459 357.898,208.459 358.79,208.459 359.683,208.459 360.576,208.459 361.469,208.459 362.362,208.459 363.254,208.459 364.147,208.459 365.04,208.459 365.933,208.459 366.826,208.459 367.718,208.459 368.611,208.459 369.504,208.459 370.397,208.459 371.29,208.459 372.182,208.459 373.075,208.459 373.968,208.459 374.861,208.459 375.754,208.459 376.646,208.459 377.539,208.459 378.432,208.459 379.325,208.459 380.218,208.459 381.11,208.459 382.003,208.459 382.896,208.459 383.789,208.459 384.682,208.459 385.574,208.459 386.467,208.459 387.36,208.459 388.253,208.459 389.146,208.459 390.038,208.459 390.931,208.459 391.824,208.459 392.717,208.459 393.609,208.459 394.502,208.459 395.395,208.459 396.288,208.459 397.181,208.459 398.074,208.459 398.966,208.459 399.859,208.459 400.752,208.459 401.645,208.459 402.538,208.459 403.43,208.459 404.323,208.459 405.216,208.459 406.109,208.459 407.001,208.459 407.894,208.459 408.787,208.459 409.68,208.459 410.573,208.459 411.466,208.459 412.358,208.459 413.251,208.459 414.144,208.459 415.037,208.459 415.93,208.459 416.822,208.459 417.715,208.459 418.608,208.459 419.501,208.459 420.393,208.459 421.286,208.459 422.179,208.459 423.072,208.459 423.965,208.459 424.858,208.459 425.75,208.459 426.643,208.459 427.536,208.459 428.429,208.459 429.322,208.459 430.214,208.459 431.107,208.459 432,208.459 432.893,208.459 433.786,208.459 434.678,208.459 435.571,208.459 436.464,208.459 437.357,208.459 438.25,208.459 439.142,208.459 440.035,208.459 440.928,208.459 441.821,208.459 442.714,208.459 443.606,208.459 444.499,208.459 445.392,208.459 446.285,208.459 447.178,208.459 448.07,208.459 448.963,208.459 449.856,208.459 450.749,208.459 451.641,208.459 452.534,208.459 453.427,208.459 454.32,208.459 455.213,208.459 456.106,208.459 456.998,208.459 457.891,208.459 458.784,208.459 459.677,208.459 460.57,208.459 461.462,208.459 462.355,208.459 463.248,208.459 464.141,208.459 465.034,208.459 465.926,208.459 466.819,208.459 467.712,208.459 468.605,208.459 469.497,208.459 470.39,208.459 471.283,208.459 472.176,208.459 473.069,208.459 473.962,208.459 474.854,208.459 475.747,208.459 476.64,208.459 477.533,208.459 478.426,208.459 479.318,208.459 480.211,208.459 481.104,208.459 481.997,208.459 482.889,208.459 483.782,208.459 484.675,208.459 485.568,208.459 486.461,208.459 487.354,208.459 488.246,208.459 489.139,208.459 490.032,208.459 490.925,208.459 491.818,208.459 492.71,208.459 493.603,208.459 494.496,208.459 495.389,208.459 496.281,208.459 497.174,208.459 498.067,208.459 498.96,208.459 499.853,208.459 500.746,208.459 501.638,208.459 502.531,208.459 503.424,208.459 504.317,208.459 505.21,208.459 506.102,208.459 506.995,208.459 507.888,208.459 508.781,208.459 509.674,208.459 510.566,208.459 511.459,208.459 512.352,208.459 513.245,208.459 514.138,208.459 515.03,208.459 515.923,208.459 516.816,208.459 517.709,208.459 518.602,208.459 519.494,208.459 520.387,208.459 521.28,208.459"/>
</g>
<clipPath id="cp00576432">
  <polygon points="0,432 576,432 576,0 0,0"/>
</clipPath>
<g clip-path="url(#cp00576432)">
<polygon fill="#ffffff" shape-rendering="crispEdges" points="410.673,84.4224 516.76,84.4224 410.673,36.9199"/>
<polygon fill="#ffffff" shape-rendering="crispEdges" points="516.76,84.4224 516.76,36.9199 410.673,36.9199"/>
<polyline fill="none" stroke="#262626" stroke-width="0.5" stroke-linecap="square" stroke-linejoin="miter" stroke-dasharray="16,0" points="410.673,84.4224 516.76,84.4224"/>
<polyline fill="none" stroke="#262626" stroke-width="0.5" stroke-linecap="square" stroke-linejoin="miter" stroke-dasharray="16,0" points="410.673,36.9199 516.76,36.9199"/>
<polyline fill="none" stroke="#262626" stroke-width="0.5" stroke-linecap="square" stroke-linejoin="miter" stroke-dasharray="16,0" points="410.673,84.4224 410.673,36.9199"/>
<polyline fill="none" stroke="#262626" stroke-width="0.5" stroke-linecap="square" stroke-linejoin="miter" stroke-dasharray="16,0" points="516.76,84.4224 516.76,36.9199"/>
<text xml:space="preserve" transform="translate(453.612,50.337) rotate(-0,-0,-5.5)" font-family="FreeSans" font-weight="normal" font-style="normal" font-size="9"><tspan y="-1" fill="rgb(0,0,0)" x="0 5 10 15 20 ">ode45</tspan></text>
<text xml:space="preserve" transform="translate(453.612,66.1711) rotate(-0,-0,-5.5)" font-family="FreeSans" font-weight="normal" font-style="normal" font-size="9"><tspan y="-1" fill="rgb(0,0,0)" x="0 5 10 15 20 ">ode23</tspan></text>
<text xml:space="preserve" transform="translate(453.612,82.0053) rotate(-0,-0,-5.5)" font-family="FreeSans" font-weight="normal" font-style="normal" font-size="9"><tspan y="-1" fill="rgb(0,0,0)" x="0 6 11 16 21 26 28 34 39 42 45 50 52 ">Runge Kutta 4</tspan></text>
<polyline fill="none" stroke="#0000ff" stroke-width="0.5" stroke-linecap="butt" stroke-linejoin="round" points="415.193,44.837 449.092,44.837"/>
<polyline fill="none" stroke="#ff0000" stroke-width="0.5" stroke-linecap="butt" stroke-linejoin="round" points="415.193,60.6711 449.092,60.6711"/>
<polyline fill="none" stroke="#00ff00" stroke-width="0.5" stroke-linecap="butt" stroke-linejoin="round" points="415.193,76.5053 449.092,76.5053"/>
</g>
</g>
</svg>
