<?xml version="1.0" encoding="UTF-8" standalone="no"?>
<svg xmlns="http://www.w3.org/2000/svg"
     xmlns:xlink="http://www.w3.org/1999/xlink"
     width="576pt" height="432pt" viewBox="0 0 576 432">
<title>gl2ps_renderer figure</title>
<desc>
Creator: GL2PS 1.4.0, (C) 1999-2017 C. Geuzaine
For: Octave
CreationDate: Sat Oct 20 18:57:28 2018
</desc>
<defs>
</defs>
<polygon fill="#ffffff" points="0,0 576,0 576,432 0,432"/>
<g>
<polygon fill="#ffffff" points="0,432 576,432 576,0 0,0" shape-rendering="crispEdges"/>
<clipPath id="cp00576432">
  <polygon points="0,432 576,432 576,0 0,0"/>
</clipPath>
<g clip-path="url(#cp00576432)">
<polygon fill="#ffffff" shape-rendering="crispEdges" points="74.88,384.48 521.28,384.48 74.88,32.4"/>
<polygon fill="#ffffff" shape-rendering="crispEdges" points="521.28,384.48 521.28,32.4 74.88,32.4"/>
<polyline fill="none" stroke="#262626" stroke-width="0.5" stroke-linecap="butt" stroke-linejoin="miter" points="74.88,384.48 74.88,380.015"/>
<polyline fill="none" stroke="#262626" stroke-width="0.5" stroke-linecap="butt" stroke-linejoin="miter" points="74.88,32.4 74.88,36.8651"/>
<polyline fill="none" stroke="#262626" stroke-width="0.5" stroke-linecap="butt" stroke-linejoin="miter" points="164.16,384.48 164.16,380.015"/>
<polyline fill="none" stroke="#262626" stroke-width="0.5" stroke-linecap="butt" stroke-linejoin="miter" points="164.16,32.4 164.16,36.8651"/>
<polyline fill="none" stroke="#262626" stroke-width="0.5" stroke-linecap="butt" stroke-linejoin="miter" points="253.44,384.48 253.44,380.015"/>
<polyline fill="none" stroke="#262626" stroke-width="0.5" stroke-linecap="butt" stroke-linejoin="miter" points="253.44,32.4 253.44,36.8651"/>
<polyline fill="none" stroke="#262626" stroke-width="0.5" stroke-linecap="butt" stroke-linejoin="miter" points="342.72,384.48 342.72,380.015"/>
<polyline fill="none" stroke="#262626" stroke-width="0.5" stroke-linecap="butt" stroke-linejoin="miter" points="342.72,32.4 342.72,36.8651"/>
<polyline fill="none" stroke="#262626" stroke-width="0.5" stroke-linecap="butt" stroke-linejoin="miter" points="432,384.48 432,380.015"/>
<polyline fill="none" stroke="#262626" stroke-width="0.5" stroke-linecap="butt" stroke-linejoin="miter" points="432,32.4 432,36.8651"/>
<polyline fill="none" stroke="#262626" stroke-width="0.5" stroke-linecap="butt" stroke-linejoin="miter" points="521.28,384.48 521.28,380.015"/>
<polyline fill="none" stroke="#262626" stroke-width="0.5" stroke-linecap="butt" stroke-linejoin="miter" points="521.28,32.4 521.28,36.8651"/>
<text xml:space="preserve" transform="translate(71.88,400.481) rotate(-0,3,-11)" font-family="FreeSans" font-weight="normal" font-style="normal" font-size="10"><tspan y="-1" fill="rgb(38,38,38)" x="0 ">0</tspan></text>
<text xml:space="preserve" transform="translate(156.66,400.481) rotate(-0,7.5,-11)" font-family="FreeSans" font-weight="normal" font-style="normal" font-size="10"><tspan y="-1" fill="rgb(38,38,38)" x="0 6 9 ">0.2</tspan></text>
<text xml:space="preserve" transform="translate(245.94,400.481) rotate(-0,7.5,-11)" font-family="FreeSans" font-weight="normal" font-style="normal" font-size="10"><tspan y="-1" fill="rgb(38,38,38)" x="0 6 9 ">0.4</tspan></text>
<text xml:space="preserve" transform="translate(335.22,400.481) rotate(-0,7.5,-11)" font-family="FreeSans" font-weight="normal" font-style="normal" font-size="10"><tspan y="-1" fill="rgb(38,38,38)" x="0 6 9 ">0.6</tspan></text>
<text xml:space="preserve" transform="translate(424.5,400.481) rotate(-0,7.5,-11)" font-family="FreeSans" font-weight="normal" font-style="normal" font-size="10"><tspan y="-1" fill="rgb(38,38,38)" x="0 6 9 ">0.8</tspan></text>
<text xml:space="preserve" transform="translate(518.28,400.481) rotate(-0,3,-11)" font-family="FreeSans" font-weight="normal" font-style="normal" font-size="10"><tspan y="-1" fill="rgb(38,38,38)" x="0 ">1</tspan></text>
<polyline fill="none" stroke="#262626" stroke-width="0.5" stroke-linecap="butt" stroke-linejoin="miter" points="74.88,384.48 79.348,384.48"/>
<polyline fill="none" stroke="#262626" stroke-width="0.5" stroke-linecap="butt" stroke-linejoin="miter" points="521.28,384.48 516.812,384.48"/>
<polyline fill="none" stroke="#262626" stroke-width="0.5" stroke-linecap="butt" stroke-linejoin="miter" points="74.88,325.8 79.348,325.8"/>
<polyline fill="none" stroke="#262626" stroke-width="0.5" stroke-linecap="butt" stroke-linejoin="miter" points="521.28,325.8 516.812,325.8"/>
<polyline fill="none" stroke="#262626" stroke-width="0.5" stroke-linecap="butt" stroke-linejoin="miter" points="74.88,267.12 79.348,267.12"/>
<polyline fill="none" stroke="#262626" stroke-width="0.5" stroke-linecap="butt" stroke-linejoin="miter" points="521.28,267.12 516.812,267.12"/>
<polyline fill="none" stroke="#262626" stroke-width="0.5" stroke-linecap="butt" stroke-linejoin="miter" points="74.88,208.44 79.348,208.44"/>
<polyline fill="none" stroke="#262626" stroke-width="0.5" stroke-linecap="butt" stroke-linejoin="miter" points="521.28,208.44 516.812,208.44"/>
<polyline fill="none" stroke="#262626" stroke-width="0.5" stroke-linecap="butt" stroke-linejoin="miter" points="74.88,149.76 79.348,149.76"/>
<polyline fill="none" stroke="#262626" stroke-width="0.5" stroke-linecap="butt" stroke-linejoin="miter" points="521.28,149.76 516.812,149.76"/>
<polyline fill="none" stroke="#262626" stroke-width="0.5" stroke-linecap="butt" stroke-linejoin="miter" points="74.88,91.08 79.348,91.08"/>
<polyline fill="none" stroke="#262626" stroke-width="0.5" stroke-linecap="butt" stroke-linejoin="miter" points="521.28,91.08 516.812,91.08"/>
<polyline fill="none" stroke="#262626" stroke-width="0.5" stroke-linecap="butt" stroke-linejoin="miter" points="74.88,32.4 79.348,32.4"/>
<polyline fill="none" stroke="#262626" stroke-width="0.5" stroke-linecap="butt" stroke-linejoin="miter" points="521.28,32.4 516.812,32.4"/>
<text xml:space="preserve" transform="translate(63.8755,389.98) rotate(-0,6,-5.5)" font-family="FreeSans" font-weight="normal" font-style="normal" font-size="10"><tspan y="-1" fill="rgb(38,38,38)" x="0 ">1</tspan></text>
<text xml:space="preserve" transform="translate(54.8755,331.3) rotate(-0,15,-5.5)" font-family="FreeSans" font-weight="normal" font-style="normal" font-size="10"><tspan y="-1" fill="rgb(38,38,38)" x="0 6 9 ">1.2</tspan></text>
<text xml:space="preserve" transform="translate(54.8755,272.62) rotate(-0,15,-5.5)" font-family="FreeSans" font-weight="normal" font-style="normal" font-size="10"><tspan y="-1" fill="rgb(38,38,38)" x="0 6 9 ">1.4</tspan></text>
<text xml:space="preserve" transform="translate(54.8755,213.94) rotate(-0,15,-5.5)" font-family="FreeSans" font-weight="normal" font-style="normal" font-size="10"><tspan y="-1" fill="rgb(38,38,38)" x="0 6 9 ">1.6</tspan></text>
<text xml:space="preserve" transform="translate(54.8755,155.26) rotate(-0,15,-5.5)" font-family="FreeSans" font-weight="normal" font-style="normal" font-size="10"><tspan y="-1" fill="rgb(38,38,38)" x="0 6 9 ">1.8</tspan></text>
<text xml:space="preserve" transform="translate(63.8755,96.58) rotate(-0,6,-5.5)" font-family="FreeSans" font-weight="normal" font-style="normal" font-size="10"><tspan y="-1" fill="rgb(38,38,38)" x="0 ">2</tspan></text>
<text xml:space="preserve" transform="translate(54.8755,37.9) rotate(-0,15,-5.5)" font-family="FreeSans" font-weight="normal" font-style="normal" font-size="10"><tspan y="-1" fill="rgb(38,38,38)" x="0 6 9 ">2.2</tspan></text>
<polyline fill="none" stroke="#262626" stroke-width="0.5" stroke-linecap="square" stroke-linejoin="miter" stroke-dasharray="16,0" points="74.88,384.48 521.28,384.48"/>
<polyline fill="none" stroke="#262626" stroke-width="0.5" stroke-linecap="square" stroke-linejoin="miter" stroke-dasharray="16,0" points="74.88,32.4 521.28,32.4"/>
<polyline fill="none" stroke="#262626" stroke-width="0.5" stroke-linecap="square" stroke-linejoin="miter" stroke-dasharray="16,0" points="74.88,384.48 74.88,32.4"/>
<polyline fill="none" stroke="#262626" stroke-width="0.5" stroke-linecap="square" stroke-linejoin="miter" stroke-dasharray="16,0" points="521.28,384.48 521.28,32.4"/>
<polyline fill="none" stroke="#000000" stroke-width="0.5" stroke-linecap="butt" stroke-linejoin="round" points="74.88,384.48 130.68,382.17 186.48,375.015 242.28,362.29 298.08,342.565 353.88,313.266 409.68,269.671 465.48,202.497 521.28,91.0873"/>
<polyline fill="none" stroke="#ff0000" stroke-width="0.5" stroke-linecap="butt" stroke-linejoin="round" points="74.88,384.48 102.78,383.906 130.68,382.17 158.58,379.23 186.48,375.016 214.38,369.418 242.28,362.29 270.18,353.429 298.08,342.566 325.98,329.34 353.88,313.266 381.78,293.684 409.68,269.671 437.58,239.918 465.48,202.498 493.38,154.463 521.28,91.0803"/>
<polyline fill="none" stroke="#00ff00" stroke-width="0.5" stroke-linecap="butt" stroke-linejoin="round" points="74.88,384.48 88.83,384.337 102.78,383.906 116.73,383.185 130.68,382.17 144.63,380.854 158.58,379.23 172.53,377.288 186.48,375.016 200.43,372.398 214.38,369.418 228.33,366.057 242.28,362.29 256.23,358.091 270.18,353.429 284.13,348.268 298.08,342.566 312.03,336.275 325.98,329.34 339.93,321.695 353.88,313.266 367.83,303.964 381.78,293.684 395.73,282.302 409.68,269.671 423.63,255.615 437.58,239.918 451.53,222.32 465.48,202.498 479.43,180.048 493.38,154.463 507.33,125.09 521.28,91.08"/>
<polyline fill="none" stroke="#0000ff" stroke-width="0.5" stroke-linecap="butt" stroke-linejoin="round" points="74.88,384.48 81.855,384.444 88.83,384.337 95.805,384.157 102.78,383.906 109.755,383.582 116.73,383.185 123.705,382.714 130.68,382.17 137.655,381.55 144.63,380.854 151.605,380.081 158.58,379.23 165.555,378.3 172.53,377.288 179.505,376.194 186.48,375.016 193.455,373.751 200.43,372.398 207.405,370.955 214.38,369.418 221.355,367.787 228.33,366.057 235.305,364.226 242.28,362.29 249.255,360.246 256.23,358.091 263.205,355.82 270.18,353.429 277.155,350.913 284.13,348.268 291.105,345.487 298.08,342.566 305.055,339.497 312.03,336.275 319.005,332.892 325.98,329.34 332.955,325.611 339.93,321.695 346.905,317.584 353.88,313.266 360.855,308.73 367.83,303.964 374.805,298.953 381.78,293.684 388.755,288.139 395.73,282.302 402.705,276.153 409.68,269.671 416.655,262.834 423.63,255.615 430.605,247.987 437.58,239.918 444.555,231.376 451.53,222.32 458.505,212.71 465.48,202.498 472.455,191.63 479.43,180.048 486.405,167.684 493.38,154.463 500.355,140.297 507.33,125.09 514.305,108.727 521.28,91.08"/>
<polyline fill="none" stroke="#ffff00" stroke-width="0.5" stroke-linecap="butt" stroke-linejoin="round" points="74.88,384.48 78.3675,384.471 81.855,384.444 85.3425,384.399 88.83,384.337 92.3175,384.256 95.805,384.157 99.2925,384.041 102.78,383.906 106.267,383.753 109.755,383.582 113.243,383.393 116.73,383.185 120.217,382.959 123.705,382.714 127.192,382.451 130.68,382.17 134.167,381.869 137.655,381.55 141.142,381.212 144.63,380.854 148.117,380.477 151.605,380.081 155.092,379.666 158.58,379.23 162.068,378.775 165.555,378.3 169.042,377.804 172.53,377.288 176.017,376.751 179.505,376.194 182.992,375.615 186.48,375.016 189.967,374.394 193.455,373.751 196.943,373.086 200.43,372.398 203.917,371.688 207.405,370.955 210.892,370.198 214.38,369.418 217.867,368.615 221.355,367.787 224.842,366.934 228.33,366.057 231.818,365.154 235.305,364.226 238.792,363.271 242.28,362.29 245.767,361.282 249.255,360.246 252.742,359.183 256.23,358.091 259.717,356.97 263.205,355.82 266.693,354.64 270.18,353.429 273.667,352.187 277.155,350.913 280.642,349.607 284.13,348.268 287.617,346.895 291.105,345.487 294.592,344.044 298.08,342.566 301.568,341.05 305.055,339.497 308.542,337.906 312.03,336.275 315.517,334.604 319.005,332.892 322.492,331.137 325.98,329.34 329.467,327.498 332.955,325.611 336.443,323.677 339.93,321.695 343.417,319.665 346.905,317.584 350.392,315.452 353.88,313.266 357.367,311.026 360.855,308.73 364.342,306.377 367.83,303.964 371.318,301.49 374.805,298.953 378.292,296.352 381.78,293.684 385.267,290.947 388.755,288.139 392.242,285.258 395.73,282.302 399.217,279.268 402.705,276.153 406.193,272.955 409.68,269.671 413.167,266.299 416.655,262.834 420.142,259.274 423.63,255.615 427.117,251.854 430.605,247.987 434.092,244.01 437.58,239.918 441.068,235.709 444.555,231.376 448.042,226.915 451.53,222.32 455.017,217.587 458.505,212.71 461.992,207.682 465.48,202.498 468.967,197.149 472.455,191.63 475.943,185.932 479.43,180.048 482.917,173.968 486.405,167.684 489.892,161.186 493.38,154.463 496.867,147.504 500.355,140.297 503.842,132.83 507.33,125.09 510.818,117.06 514.305,108.727 517.792,100.073 521.28,91.08"/>
<polyline fill="none" stroke="#ff00ff" stroke-width="0.5" stroke-linecap="butt" stroke-linejoin="round" points="74.88,384.48 76.6237,384.478 78.3675,384.471 80.1112,384.46 81.855,384.444 83.5987,384.424 85.3425,384.399 87.0863,384.37 88.83,384.337 90.5737,384.299 92.3175,384.256 94.0612,384.209 95.805,384.157 97.5487,384.101 99.2925,384.041 101.036,383.975 102.78,383.906 104.524,383.832 106.267,383.753 108.011,383.67 109.755,383.582 111.499,383.49 113.243,383.393 114.986,383.291 116.73,383.185 118.474,383.074 120.217,382.959 121.961,382.839 123.705,382.714 125.449,382.585 127.192,382.451 128.936,382.313 130.68,382.17 132.424,382.022 134.167,381.869 135.911,381.712 137.655,381.55 139.399,381.383 141.142,381.212 142.886,381.035 144.63,380.854 146.374,380.668 148.117,380.477 149.861,380.282 151.605,380.081 153.349,379.876 155.092,379.666 156.836,379.45 158.58,379.23 160.324,379.005 162.068,378.775 163.811,378.54 165.555,378.3 167.299,378.054 169.042,377.804 170.786,377.549 172.53,377.288 174.274,377.022 176.017,376.751 177.761,376.475 179.505,376.194 181.249,375.907 182.992,375.615 184.736,375.318 186.48,375.016 188.224,374.707 189.967,374.394 191.711,374.075 193.455,373.751 195.199,373.421 196.943,373.086 198.686,372.745 200.43,372.398 202.174,372.046 203.917,371.688 205.661,371.324 207.405,370.955 209.149,370.579 210.892,370.198 212.636,369.811 214.38,369.418 216.124,369.02 217.867,368.615 219.611,368.204 221.355,367.787 223.099,367.364 224.842,366.934 226.586,366.499 228.33,366.057 230.074,365.609 231.818,365.154 233.561,364.693 235.305,364.226 237.049,363.752 238.792,363.271 240.536,362.784 242.28,362.29 244.024,361.789 245.767,361.282 247.511,360.768 249.255,360.246 250.999,359.718 252.742,359.183 254.486,358.641 256.23,358.091 257.974,357.534 259.717,356.97 261.461,356.399 263.205,355.82 264.949,355.234 266.693,354.64 268.436,354.038 270.18,353.429 271.924,352.812 273.667,352.187 275.411,351.554 277.155,350.913 278.899,350.264 280.642,349.607 282.386,348.942 284.13,348.268 285.874,347.585 287.617,346.895 289.361,346.195 291.105,345.487 292.849,344.77 294.592,344.044 296.336,343.31 298.08,342.566 299.824,341.813 301.568,341.05 303.311,340.279 305.055,339.497 306.799,338.706 308.542,337.906 310.286,337.095 312.03,336.275 313.774,335.445 315.517,334.604 317.261,333.753 319.005,332.892 320.749,332.02 322.492,331.137 324.236,330.244 325.98,329.34 327.724,328.425 329.467,327.498 331.211,326.56 332.955,325.611 334.699,324.65 336.443,323.677 338.186,322.692 339.93,321.695 341.674,320.686 343.417,319.665 345.161,318.631 346.905,317.584 348.649,316.525 350.392,315.452 352.136,314.366 353.88,313.266 355.624,312.153 357.367,311.026 359.111,309.886 360.855,308.73 362.599,307.561 364.342,306.377 366.086,305.178 367.83,303.964 369.574,302.735 371.318,301.49 373.061,300.23 374.805,298.953 376.549,297.661 378.292,296.352 380.036,295.026 381.78,293.684 383.524,292.324 385.267,290.947 387.011,289.552 388.755,288.139 390.499,286.708 392.242,285.258 393.986,283.79 395.73,282.302 397.474,280.795 399.217,279.268 400.961,277.721 402.705,276.153 404.449,274.565 406.193,272.955 407.936,271.324 409.68,269.671 411.424,267.996 413.167,266.299 414.911,264.578 416.655,262.834 418.399,261.066 420.142,259.274 421.886,257.457 423.63,255.615 425.374,253.747 427.117,251.854 428.861,249.934 430.605,247.987 432.349,246.012 434.092,244.01 435.836,241.979 437.58,239.918 439.324,237.829 441.068,235.709 442.811,233.558 444.555,231.376 446.299,229.161 448.042,226.915 449.786,224.634 451.53,222.32 453.274,219.972 455.017,217.587 456.761,215.167 458.505,212.71 460.249,210.215 461.992,207.682 463.736,205.11 465.48,202.498 467.224,199.844 468.967,197.149 470.711,194.412 472.455,191.63 474.199,188.804 475.943,185.932 477.686,183.014 479.43,180.048 481.174,177.033 482.917,173.968 484.661,170.852 486.405,167.684 488.149,164.462 489.892,161.186 491.636,157.853 493.38,154.463 495.124,151.013 496.867,147.504 498.611,143.932 500.355,140.297 502.099,136.597 503.842,132.83 505.586,128.995 507.33,125.09 509.074,121.112 510.818,117.06 512.561,112.933 514.305,108.727 516.049,104.441 517.792,100.073 519.536,95.62 521.28,91.08"/>
<polyline fill="none" stroke="#00ffff" stroke-width="0.5" stroke-linecap="butt" stroke-linejoin="round" points="74.88,384.48 75.7519,384.479 76.6237,384.478 77.4956,384.475 78.3675,384.471 79.2394,384.466 80.1112,384.46 80.9831,384.453 81.855,384.444 82.7269,384.435 83.5987,384.424 84.4706,384.412 85.3425,384.399 86.2144,384.385 87.0863,384.37 87.9581,384.354 88.83,384.337 89.7019,384.318 90.5737,384.299 91.4456,384.278 92.3175,384.256 93.1894,384.233 94.0612,384.209 94.9331,384.184 95.805,384.157 96.6769,384.13 97.5487,384.101 98.4206,384.071 99.2925,384.041 100.164,384.009 101.036,383.975 101.908,383.941 102.78,383.906 103.652,383.869 104.524,383.832 105.396,383.793 106.267,383.753 107.139,383.712 108.011,383.67 108.883,383.626 109.755,383.582 110.627,383.536 111.499,383.49 112.371,383.442 113.243,383.393 114.114,383.342 114.986,383.291 115.858,383.239 116.73,383.185 117.602,383.13 118.474,383.074 119.346,383.017 120.217,382.959 121.089,382.9 121.961,382.839 122.833,382.777 123.705,382.714 124.577,382.65 125.449,382.585 126.321,382.519 127.192,382.451 128.064,382.383 128.936,382.313 129.808,382.242 130.68,382.17 131.552,382.096 132.424,382.022 133.296,381.946 134.167,381.869 135.039,381.791 135.911,381.712 136.783,381.632 137.655,381.55 138.527,381.467 139.399,381.383 140.271,381.298 141.142,381.212 142.014,381.124 142.886,381.035 143.758,380.945 144.63,380.854 145.502,380.762 146.374,380.668 147.246,380.573 148.117,380.477 148.989,380.38 149.861,380.282 150.733,380.182 151.605,380.081 152.477,379.979 153.349,379.876 154.221,379.771 155.092,379.666 155.964,379.559 156.836,379.45 157.708,379.341 158.58,379.23 159.452,379.118 160.324,379.005 161.196,378.891 162.068,378.775 162.939,378.658 163.811,378.54 164.683,378.42 165.555,378.3 166.427,378.178 167.299,378.054 168.171,377.93 169.042,377.804 169.914,377.677 170.786,377.549 171.658,377.419 172.53,377.288 173.402,377.156 174.274,377.022 175.146,376.888 176.017,376.751 176.889,376.614 177.761,376.475 178.633,376.335 179.505,376.194 180.377,376.051 181.249,375.907 182.121,375.762 182.992,375.615 183.864,375.467 184.736,375.318 185.608,375.167 186.48,375.016 187.352,374.862 188.224,374.707 189.096,374.551 189.967,374.394 190.839,374.235 191.711,374.075 192.583,373.914 193.455,373.751 194.327,373.587 195.199,373.421 196.071,373.254 196.943,373.086 197.814,372.916 198.686,372.745 199.558,372.572 200.43,372.398 201.302,372.223 202.174,372.046 203.046,371.867 203.917,371.688 204.789,371.507 205.661,371.324 206.533,371.14 207.405,370.955 208.277,370.768 209.149,370.579 210.021,370.39 210.892,370.198 211.764,370.006 212.636,369.811 213.508,369.616 214.38,369.418 215.252,369.22 216.124,369.02 216.996,368.818 217.867,368.615 218.739,368.41 219.611,368.204 220.483,367.996 221.355,367.787 222.227,367.576 223.099,367.364 223.971,367.15 224.842,366.934 225.714,366.717 226.586,366.499 227.458,366.279 228.33,366.057 229.202,365.834 230.074,365.609 230.946,365.382 231.818,365.154 232.689,364.924 233.561,364.693 234.433,364.46 235.305,364.226 236.177,363.99 237.049,363.752 237.921,363.512 238.792,363.271 239.664,363.028 240.536,362.784 241.408,362.538 242.28,362.29 243.152,362.041 244.024,361.789 244.896,361.537 245.767,361.282 246.639,361.026 247.511,360.768 248.383,360.508 249.255,360.246 250.127,359.983 250.999,359.718 251.871,359.452 252.742,359.183 253.614,358.913 254.486,358.641 255.358,358.367 256.23,358.091 257.102,357.814 257.974,357.534 258.846,357.253 259.717,356.97 260.589,356.686 261.461,356.399 262.333,356.11 263.205,355.82 264.077,355.528 264.949,355.234 265.821,354.938 266.693,354.64 267.564,354.34 268.436,354.038 269.308,353.735 270.18,353.429 271.052,353.121 271.924,352.812 272.796,352.5 273.667,352.187 274.539,351.872 275.411,351.554 276.283,351.235 277.155,350.913 278.027,350.59 278.899,350.264 279.771,349.937 280.642,349.607 281.514,349.275 282.386,348.942 283.258,348.606 284.13,348.268 285.002,347.928 285.874,347.585 286.746,347.241 287.617,346.895 288.489,346.546 289.361,346.195 290.233,345.842 291.105,345.487 291.977,345.13 292.849,344.77 293.721,344.408 294.592,344.044 295.464,343.678 296.336,343.31 297.208,342.939 298.08,342.566 298.952,342.19 299.824,341.813 300.696,341.433 301.568,341.05 302.439,340.666 303.311,340.279 304.183,339.889 305.055,339.497 305.927,339.103 306.799,338.706 307.671,338.307 308.542,337.906 309.414,337.502 310.286,337.095 311.158,336.686 312.03,336.275 312.902,335.861 313.774,335.445 314.646,335.026 315.517,334.604 316.389,334.18 317.261,333.753 318.133,333.324 319.005,332.892 319.877,332.457 320.749,332.02 321.621,331.58 322.492,331.137 323.364,330.692 324.236,330.244 325.108,329.793 325.98,329.34 326.852,328.884 327.724,328.425 328.596,327.963 329.467,327.498 330.339,327.031 331.211,326.56 332.083,326.087 332.955,325.611 333.827,325.132 334.699,324.65 335.571,324.165 336.443,323.677 337.314,323.186 338.186,322.692 339.058,322.195 339.93,321.695 340.802,321.193 341.674,320.686 342.546,320.177 343.417,319.665 344.289,319.15 345.161,318.631 346.033,318.109 346.905,317.584 347.777,317.056 348.649,316.525 349.521,315.99 350.392,315.452 351.264,314.911 352.136,314.366 353.008,313.818 353.88,313.266 354.752,312.712 355.624,312.153 356.496,311.592 357.367,311.026 358.239,310.458 359.111,309.886 359.983,309.31 360.855,308.73 361.727,308.147 362.599,307.561 363.471,306.971 364.342,306.377 365.214,305.779 366.086,305.178 366.958,304.573 367.83,303.964 368.702,303.351 369.574,302.735 370.446,302.114 371.318,301.49 372.189,300.862 373.061,300.23 373.933,299.593 374.805,298.953 375.677,298.309 376.549,297.661 377.421,297.008 378.292,296.352 379.164,295.691 380.036,295.026 380.908,294.357 381.78,293.684 382.652,293.006 383.524,292.324 384.396,291.637 385.267,290.947 386.139,290.252 387.011,289.552 387.883,288.848 388.755,288.139 389.627,287.426 390.499,286.708 391.371,285.985 392.242,285.258 393.114,284.526 393.986,283.79 394.858,283.048 395.73,282.302 396.602,281.551 397.474,280.795 398.346,280.034 399.217,279.268 400.089,278.497 400.961,277.721 401.833,276.939 402.705,276.153 403.577,275.361 404.449,274.565 405.321,273.763 406.193,272.955 407.064,272.142 407.936,271.324 408.808,270.5 409.68,269.671 410.552,268.837 411.424,267.996 412.296,267.15 413.167,266.299 414.039,265.441 414.911,264.578 415.783,263.709 416.655,262.834 417.527,261.953 418.399,261.066 419.271,260.173 420.142,259.274 421.014,258.368 421.886,257.457 422.758,256.539 423.63,255.615 424.502,254.684 425.374,253.747 426.246,252.804 427.117,251.854 427.989,250.897 428.861,249.934 429.733,248.964 430.605,247.987 431.477,247.003 432.349,246.012 433.221,245.015 434.092,244.01 434.964,242.998 435.836,241.979 436.708,240.952 437.58,239.918 438.452,238.877 439.324,237.829 440.196,236.772 441.068,235.709 441.939,234.637 442.811,233.558 443.683,232.471 444.555,231.376 445.427,230.273 446.299,229.161 447.171,228.042 448.042,226.915 448.914,225.779 449.786,224.634 450.658,223.482 451.53,222.32 452.402,221.15 453.274,219.972 454.146,218.784 455.017,217.587 455.889,216.382 456.761,215.167 457.633,213.943 458.505,212.71 459.377,211.468 460.249,210.215 461.121,208.954 461.992,207.682 462.864,206.401 463.736,205.11 464.608,203.809 465.48,202.498 466.352,201.176 467.224,199.844 468.096,198.502 468.967,197.149 469.839,195.786 470.711,194.412 471.583,193.026 472.455,191.63 473.327,190.223 474.199,188.804 475.071,187.374 475.943,185.932 476.814,184.479 477.686,183.014 478.558,181.537 479.43,180.048 480.302,178.547 481.174,177.033 482.046,175.507 482.917,173.968 483.789,172.417 484.661,170.852 485.533,169.275 486.405,167.684 487.277,166.08 488.149,164.462 489.021,162.831 489.892,161.186 490.764,159.526 491.636,157.853 492.508,156.165 493.38,154.463 494.252,152.745 495.124,151.013 495.996,149.266 496.867,147.504 497.739,145.726 498.611,143.932 499.483,142.123 500.355,140.297 501.227,138.455 502.099,136.597 502.971,134.722 503.842,132.83 504.714,130.921 505.586,128.995 506.458,127.051 507.33,125.09 508.202,123.11 509.074,121.112 509.946,119.096 510.818,117.06 511.689,115.006 512.561,112.933 513.433,110.84 514.305,108.727 515.177,106.594 516.049,104.441 516.921,102.268 517.792,100.073 518.664,97.8572 519.536,95.62 520.408,93.361 521.28,91.08"/>
<polyline fill="none" stroke="#000000" stroke-width="0.5" stroke-linecap="butt" stroke-linejoin="round" points="74.88,384.48 75.3159,384.48 75.7519,384.479 76.1878,384.479 76.6237,384.478 77.0597,384.477 77.4956,384.475 77.9315,384.473 78.3675,384.471 78.8034,384.469 79.2394,384.466 79.6753,384.463 80.1112,384.46 80.5472,384.456 80.9831,384.453 81.4191,384.448 81.855,384.444 82.2909,384.44 82.7269,384.435 83.1628,384.43 83.5987,384.424 84.0347,384.418 84.4706,384.412 84.9066,384.406 85.3425,384.399 85.7784,384.393 86.2144,384.385 86.6503,384.378 87.0863,384.37 87.5222,384.362 87.9581,384.354 88.3941,384.345 88.83,384.337 89.2659,384.328 89.7019,384.318 90.1378,384.309 90.5737,384.299 91.0097,384.288 91.4456,384.278 91.8816,384.267 92.3175,384.256 92.7534,384.245 93.1894,384.233 93.6253,384.221 94.0612,384.209 94.4972,384.196 94.9331,384.184 95.369,384.171 95.805,384.157 96.2409,384.144 96.6769,384.13 97.1128,384.116 97.5487,384.101 97.9847,384.086 98.4206,384.071 98.8566,384.056 99.2925,384.041 99.7284,384.025 100.164,384.009 100.6,383.992 101.036,383.975 101.472,383.958 101.908,383.941 102.344,383.924 102.78,383.906 103.216,383.888 103.652,383.869 104.088,383.851 104.524,383.832 104.96,383.812 105.396,383.793 105.832,383.773 106.267,383.753 106.703,383.733 107.139,383.712 107.575,383.691 108.011,383.67 108.447,383.648 108.883,383.626 109.319,383.604 109.755,383.582 110.191,383.559 110.627,383.536 111.063,383.513 111.499,383.49 111.935,383.466 112.371,383.442 112.807,383.417 113.243,383.393 113.678,383.368 114.114,383.342 114.55,383.317 114.986,383.291 115.422,383.265 115.858,383.239 116.294,383.212 116.73,383.185 117.166,383.158 117.602,383.13 118.038,383.102 118.474,383.074 118.91,383.046 119.346,383.017 119.782,382.988 120.217,382.959 120.653,382.929 121.089,382.9 121.525,382.869 121.961,382.839 122.397,382.808 122.833,382.777 123.269,382.746 123.705,382.714 124.141,382.683 124.577,382.65 125.013,382.618 125.449,382.585 125.885,382.552 126.321,382.519 126.757,382.485 127.192,382.451 127.628,382.417 128.064,382.383 128.5,382.348 128.936,382.313 129.372,382.278 129.808,382.242 130.244,382.206 130.68,382.17 131.116,382.133 131.552,382.096 131.988,382.059 132.424,382.022 132.86,381.984 133.296,381.946 133.732,381.908 134.167,381.869 134.603,381.83 135.039,381.791 135.475,381.752 135.911,381.712 136.347,381.672 136.783,381.632 137.219,381.591 137.655,381.55 138.091,381.509 138.527,381.467 138.963,381.425 139.399,381.383 139.835,381.341 140.271,381.298 140.707,381.255 141.142,381.212 141.578,381.168 142.014,381.124 142.45,381.08 142.886,381.035 143.322,380.99 143.758,380.945 144.194,380.9 144.63,380.854 145.066,380.808 145.502,380.762 145.938,380.715 146.374,380.668 146.81,380.621 147.246,380.573 147.682,380.526 148.117,380.477 148.553,380.429 148.989,380.38 149.425,380.331 149.861,380.282 150.297,380.232 150.733,380.182 151.169,380.132 151.605,380.081 152.041,380.03 152.477,379.979 152.913,379.928 153.349,379.876 153.785,379.824 154.221,379.771 154.657,379.719 155.092,379.666 155.528,379.612 155.964,379.559 156.4,379.505 156.836,379.45 157.272,379.396 157.708,379.341 158.144,379.286 158.58,379.23 159.016,379.174 159.452,379.118 159.888,379.062 160.324,379.005 160.76,378.948 161.196,378.891 161.632,378.833 162.068,378.775 162.503,378.717 162.939,378.658 163.375,378.599 163.811,378.54 164.247,378.48 164.683,378.42 165.119,378.36 165.555,378.3 165.991,378.239 166.427,378.178 166.863,378.116 167.299,378.054 167.735,377.992 168.171,377.93 168.607,377.867 169.042,377.804 169.478,377.741 169.914,377.677 170.35,377.613 170.786,377.549 171.222,377.484 171.658,377.419 172.094,377.354 172.53,377.288 172.966,377.222 173.402,377.156 173.838,377.089 174.274,377.022 174.71,376.955 175.146,376.888 175.582,376.82 176.017,376.751 176.453,376.683 176.889,376.614 177.325,376.545 177.761,376.475 178.197,376.405 178.633,376.335 179.069,376.265 179.505,376.194 179.941,376.123 180.377,376.051 180.813,375.979 181.249,375.907 181.685,375.835 182.121,375.762 182.557,375.689 182.992,375.615 183.428,375.542 183.864,375.467 184.3,375.393 184.736,375.318 185.172,375.243 185.608,375.167 186.044,375.092 186.48,375.016 186.916,374.939 187.352,374.862 187.788,374.785 188.224,374.707 188.66,374.63 189.096,374.551 189.532,374.473 189.967,374.394 190.403,374.315 190.839,374.235 191.275,374.155 191.711,374.075 192.147,373.995 192.583,373.914 193.019,373.832 193.455,373.751 193.891,373.669 194.327,373.587 194.763,373.504 195.199,373.421 195.635,373.338 196.071,373.254 196.507,373.17 196.943,373.086 197.378,373.001 197.814,372.916 198.25,372.83 198.686,372.745 199.122,372.658 199.558,372.572 199.994,372.485 200.43,372.398 200.866,372.31 201.302,372.223 201.738,372.134 202.174,372.046 202.61,371.957 203.046,371.867 203.482,371.778 203.917,371.688 204.353,371.597 204.789,371.507 205.225,371.416 205.661,371.324 206.097,371.232 206.533,371.14 206.969,371.047 207.405,370.955 207.841,370.861 208.277,370.768 208.713,370.674 209.149,370.579 209.585,370.485 210.021,370.39 210.457,370.294 210.892,370.198 211.328,370.102 211.764,370.006 212.2,369.909 212.636,369.811 213.072,369.714 213.508,369.616 213.944,369.517 214.38,369.418 214.816,369.319 215.252,369.22 215.688,369.12 216.124,369.02 216.56,368.919 216.996,368.818 217.432,368.716 217.867,368.615 218.303,368.513 218.739,368.41 219.175,368.307 219.611,368.204 220.047,368.1 220.483,367.996 220.919,367.892 221.355,367.787 221.791,367.682 222.227,367.576 222.663,367.47 223.099,367.364 223.535,367.257 223.971,367.15 224.407,367.042 224.842,366.934 225.278,366.826 225.714,366.717 226.15,366.608 226.586,366.499 227.022,366.389 227.458,366.279 227.894,366.168 228.33,366.057 228.766,365.945 229.202,365.834 229.638,365.721 230.074,365.609 230.51,365.496 230.946,365.382 231.382,365.268 231.818,365.154 232.253,365.039 232.689,364.924 233.125,364.809 233.561,364.693 233.997,364.577 234.433,364.46 234.869,364.343 235.305,364.226 235.741,364.108 236.177,363.99 236.613,363.871 237.049,363.752 237.485,363.632 237.921,363.512 238.357,363.392 238.792,363.271 239.228,363.15 239.664,363.028 240.1,362.906 240.536,362.784 240.972,362.661 241.408,362.538 241.844,362.414 242.28,362.29 242.716,362.166 243.152,362.041 243.588,361.915 244.024,361.789 244.46,361.663 244.896,361.537 245.332,361.409 245.767,361.282 246.203,361.154 246.639,361.026 247.075,360.897 247.511,360.768 247.947,360.638 248.383,360.508 248.819,360.377 249.255,360.246 249.691,360.115 250.127,359.983 250.563,359.851 250.999,359.718 251.435,359.585 251.871,359.452 252.307,359.318 252.742,359.183 253.178,359.048 253.614,358.913 254.05,358.777 254.486,358.641 254.922,358.504 255.358,358.367 255.794,358.229 256.23,358.091 256.666,357.953 257.102,357.814 257.538,357.674 257.974,357.534 258.41,357.394 258.846,357.253 259.282,357.112 259.717,356.97 260.153,356.828 260.589,356.686 261.025,356.543 261.461,356.399 261.897,356.255 262.333,356.11 262.769,355.966 263.205,355.82 263.641,355.674 264.077,355.528 264.513,355.381 264.949,355.234 265.385,355.086 265.821,354.938 266.257,354.789 266.693,354.64 267.128,354.49 267.564,354.34 268,354.189 268.436,354.038 268.872,353.887 269.308,353.735 269.744,353.582 270.18,353.429 270.616,353.275 271.052,353.121 271.488,352.967 271.924,352.812 272.36,352.656 272.796,352.5 273.232,352.344 273.667,352.187 274.103,352.03 274.539,351.872 274.975,351.713 275.411,351.554 275.847,351.395 276.283,351.235 276.719,351.074 277.155,350.913 277.591,350.752 278.027,350.59 278.463,350.427 278.899,350.264 279.335,350.101 279.771,349.937 280.207,349.772 280.642,349.607 281.078,349.441 281.514,349.275 281.95,349.109 282.386,348.942 282.822,348.774 283.258,348.606 283.694,348.437 284.13,348.268 284.566,348.098 285.002,347.928 285.438,347.757 285.874,347.585 286.31,347.414 286.746,347.241 287.182,347.068 287.617,346.895 288.053,346.721 288.489,346.546 288.925,346.371 289.361,346.195 289.797,346.019 290.233,345.842 290.669,345.665 291.105,345.487 291.541,345.309 291.977,345.13 292.413,344.95 292.849,344.77 293.285,344.59 293.721,344.408 294.157,344.227 294.592,344.044 295.028,343.862 295.464,343.678 295.9,343.494 296.336,343.31 296.772,343.124 297.208,342.939 297.644,342.753 298.08,342.566 298.516,342.378 298.952,342.19 299.388,342.002 299.824,341.813 300.26,341.623 300.696,341.433 301.132,341.242 301.568,341.05 302.003,340.858 302.439,340.666 302.875,340.472 303.311,340.279 303.747,340.084 304.183,339.889 304.619,339.693 305.055,339.497 305.491,339.3 305.927,339.103 306.363,338.905 306.799,338.706 307.235,338.507 307.671,338.307 308.107,338.107 308.542,337.906 308.978,337.704 309.414,337.502 309.85,337.299 310.286,337.095 310.722,336.891 311.158,336.686 311.594,336.481 312.03,336.275 312.466,336.068 312.902,335.861 313.338,335.653 313.774,335.445 314.21,335.235 314.646,335.026 315.082,334.815 315.517,334.604 315.953,334.392 316.389,334.18 316.825,333.967 317.261,333.753 317.697,333.539 318.133,333.324 318.569,333.108 319.005,332.892 319.441,332.675 319.877,332.457 320.313,332.239 320.749,332.02 321.185,331.8 321.621,331.58 322.057,331.359 322.492,331.137 322.928,330.915 323.364,330.692 323.8,330.468 324.236,330.244 324.672,330.019 325.108,329.793 325.544,329.567 325.98,329.34 326.416,329.112 326.852,328.884 327.288,328.654 327.724,328.425 328.16,328.194 328.596,327.963 329.032,327.731 329.467,327.498 329.903,327.265 330.339,327.031 330.775,326.796 331.211,326.56 331.647,326.324 332.083,326.087 332.519,325.849 332.955,325.611 333.391,325.372 333.827,325.132 334.263,324.891 334.699,324.65 335.135,324.408 335.571,324.165 336.007,323.921 336.443,323.677 336.878,323.432 337.314,323.186 337.75,322.94 338.186,322.692 338.622,322.444 339.058,322.195 339.494,321.946 339.93,321.695 340.366,321.444 340.802,321.193 341.238,320.94 341.674,320.686 342.11,320.432 342.546,320.177 342.982,319.922 343.417,319.665 343.853,319.408 344.289,319.15 344.725,318.891 345.161,318.631 345.597,318.371 346.033,318.109 346.469,317.847 346.905,317.584 347.341,317.321 347.777,317.056 348.213,316.791 348.649,316.525 349.085,316.258 349.521,315.99 349.957,315.721 350.392,315.452 350.828,315.182 351.264,314.911 351.7,314.639 352.136,314.366 352.572,314.092 353.008,313.818 353.444,313.543 353.88,313.266 354.316,312.989 354.752,312.712 355.188,312.433 355.624,312.153 356.06,311.873 356.496,311.592 356.932,311.309 357.367,311.026 357.803,310.743 358.239,310.458 358.675,310.172 359.111,309.886 359.547,309.598 359.983,309.31 360.419,309.021 360.855,308.73 361.291,308.439 361.727,308.147 362.163,307.855 362.599,307.561 363.035,307.266 363.471,306.971 363.907,306.674 364.342,306.377 364.778,306.078 365.214,305.779 365.65,305.479 366.086,305.178 366.522,304.876 366.958,304.573 367.394,304.269 367.83,303.964 368.266,303.658 368.702,303.351 369.138,303.043 369.574,302.735 370.01,302.425 370.446,302.114 370.882,301.803 371.318,301.49 371.753,301.176 372.189,300.862 372.625,300.546 373.061,300.23 373.497,299.912 373.933,299.593 374.369,299.274 374.805,298.953 375.241,298.632 375.677,298.309 376.113,297.985 376.549,297.661 376.985,297.335 377.421,297.008 377.857,296.681 378.292,296.352 378.728,296.022 379.164,295.691 379.6,295.359 380.036,295.026 380.472,294.692 380.908,294.357 381.344,294.021 381.78,293.684 382.216,293.345 382.652,293.006 383.088,292.665 383.524,292.324 383.96,291.981 384.396,291.637 384.832,291.293 385.267,290.947 385.703,290.6 386.139,290.252 386.575,289.902 387.011,289.552 387.447,289.2 387.883,288.848 388.319,288.494 388.755,288.139 389.191,287.783 389.627,287.426 390.063,287.067 390.499,286.708 390.935,286.347 391.371,285.985 391.807,285.622 392.242,285.258 392.678,284.893 393.114,284.526 393.55,284.158 393.986,283.79 394.422,283.419 394.858,283.048 395.294,282.676 395.73,282.302 396.166,281.927 396.602,281.551 397.038,281.173 397.474,280.795 397.91,280.415 398.346,280.034 398.782,279.651 399.217,279.268 399.653,278.883 400.089,278.497 400.525,278.109 400.961,277.721 401.397,277.331 401.833,276.939 402.269,276.547 402.705,276.153 403.141,275.758 403.577,275.361 404.013,274.964 404.449,274.565 404.885,274.164 405.321,273.763 405.757,273.359 406.193,272.955 406.628,272.549 407.064,272.142 407.5,271.734 407.936,271.324 408.372,270.913 408.808,270.5 409.244,270.087 409.68,269.671 410.116,269.255 410.552,268.837 410.988,268.417 411.424,267.996 411.86,267.574 412.296,267.15 412.732,266.725 413.167,266.299 413.603,265.871 414.039,265.441 414.475,265.01 414.911,264.578 415.347,264.144 415.783,263.709 416.219,263.272 416.655,262.834 417.091,262.394 417.527,261.953 417.963,261.51 418.399,261.066 418.835,260.62 419.271,260.173 419.707,259.724 420.142,259.274 420.578,258.822 421.014,258.368 421.45,257.913 421.886,257.457 422.322,256.999 422.758,256.539 423.194,256.078 423.63,255.615 424.066,255.15 424.502,254.684 424.938,254.217 425.374,253.747 425.81,253.277 426.246,252.804 426.682,252.33 427.117,251.854 427.553,251.376 427.989,250.897 428.425,250.416 428.861,249.934 429.297,249.45 429.733,248.964 430.169,248.476 430.605,247.987 431.041,247.496 431.477,247.003 431.913,246.509 432.349,246.012 432.785,245.514 433.221,245.015 433.657,244.513 434.092,244.01 434.528,243.505 434.964,242.998 435.4,242.489 435.836,241.979 436.272,241.466 436.708,240.952 437.144,240.436 437.58,239.918 438.016,239.399 438.452,238.877 438.888,238.354 439.324,237.829 439.76,237.301 440.196,236.772 440.632,236.242 441.068,235.709 441.503,235.174 441.939,234.637 442.375,234.098 442.811,233.558 443.247,233.015 443.683,232.471 444.119,231.924 444.555,231.376 444.991,230.825 445.427,230.273 445.863,229.718 446.299,229.161 446.735,228.603 447.171,228.042 447.607,227.479 448.042,226.915 448.478,226.348 448.914,225.779 449.35,225.208 449.786,224.634 450.222,224.059 450.658,223.482 451.094,222.902 451.53,222.32 451.966,221.736 452.402,221.15 452.838,220.562 453.274,219.972 453.71,219.379 454.146,218.784 454.582,218.187 455.017,217.587 455.453,216.986 455.889,216.382 456.325,215.776 456.761,215.167 457.197,214.556 457.633,213.943 458.069,213.328 458.505,212.71 458.941,212.09 459.377,211.468 459.813,210.843 460.249,210.215 460.685,209.586 461.121,208.954 461.557,208.319 461.992,207.682 462.428,207.043 462.864,206.401 463.3,205.757 463.736,205.11 464.172,204.461 464.608,203.809 465.044,203.155 465.48,202.498 465.916,201.838 466.352,201.176 466.788,200.512 467.224,199.844 467.66,199.175 468.096,198.502 468.532,197.827 468.967,197.149 469.403,196.469 469.839,195.786 470.275,195.1 470.711,194.412 471.147,193.72 471.583,193.026 472.019,192.33 472.455,191.63 472.891,190.928 473.327,190.223 473.763,189.515 474.199,188.804 474.635,188.091 475.071,187.374 475.507,186.655 475.943,185.932 476.378,185.207 476.814,184.479 477.25,183.748 477.686,183.014 478.122,182.277 478.558,181.537 478.994,180.794 479.43,180.048 479.866,179.299 480.302,178.547 480.738,177.791 481.174,177.033 481.61,176.272 482.046,175.507 482.482,174.739 482.917,173.968 483.353,173.194 483.789,172.417 484.225,171.636 484.661,170.852 485.097,170.065 485.533,169.275 485.969,168.481 486.405,167.684 486.841,166.884 487.277,166.08 487.713,165.273 488.149,164.462 488.585,163.648 489.021,162.831 489.457,162.01 489.892,161.186 490.328,160.358 490.764,159.526 491.2,158.691 491.636,157.853 492.072,157.011 492.508,156.165 492.944,155.316 493.38,154.463 493.816,153.606 494.252,152.745 494.688,151.881 495.124,151.013 495.56,150.142 495.996,149.266 496.432,148.387 496.867,147.504 497.303,146.617 497.739,145.726 498.175,144.831 498.611,143.932 499.047,143.029 499.483,142.123 499.919,141.212 500.355,140.297 500.791,139.378 501.227,138.455 501.663,137.528 502.099,136.597 502.535,135.662 502.971,134.722 503.407,133.778 503.842,132.83 504.278,131.878 504.714,130.921 505.15,129.96 505.586,128.995 506.022,128.025 506.458,127.051 506.894,126.073 507.33,125.09 507.766,124.102 508.202,123.11 508.638,122.113 509.074,121.112 509.51,120.106 509.946,119.096 510.382,118.08 510.818,117.06 511.253,116.036 511.689,115.006 512.125,113.972 512.561,112.933 512.997,111.889 513.433,110.84 513.869,109.786 514.305,108.727 514.741,107.663 515.177,106.594 515.613,105.52 516.049,104.441 516.485,103.357 516.921,102.268 517.357,101.173 517.792,100.073 518.228,98.9677 518.664,97.8572 519.1,96.7413 519.536,95.62 519.972,94.4933 520.408,93.361 520.844,92.2233 521.28,91.08"/>
</g>
<clipPath id="cp00576432">
  <polygon points="0,432 576,432 576,0 0,0"/>
</clipPath>
<g clip-path="url(#cp00576432)">
<polygon fill="#ffffff" shape-rendering="crispEdges" points="411.701,163.593 516.76,163.593 411.701,36.9199"/>
<polygon fill="#ffffff" shape-rendering="crispEdges" points="516.76,163.593 516.76,36.9199 411.701,36.9199"/>
<polyline fill="none" stroke="#262626" stroke-width="0.5" stroke-linecap="square" stroke-linejoin="miter" stroke-dasharray="16,0" points="411.701,163.593 516.76,163.593"/>
<polyline fill="none" stroke="#262626" stroke-width="0.5" stroke-linecap="square" stroke-linejoin="miter" stroke-dasharray="16,0" points="411.701,36.9199 516.76,36.9199"/>
<polyline fill="none" stroke="#262626" stroke-width="0.5" stroke-linecap="square" stroke-linejoin="miter" stroke-dasharray="16,0" points="411.701,163.593 411.701,36.9199"/>
<polyline fill="none" stroke="#262626" stroke-width="0.5" stroke-linecap="square" stroke-linejoin="miter" stroke-dasharray="16,0" points="516.76,163.593 516.76,36.9199"/>
<text xml:space="preserve" transform="translate(454.64,50.337) rotate(-0,-0,-5.5)" font-family="FreeSans" font-weight="normal" font-style="normal" font-size="9"><tspan y="-1" fill="rgb(0,0,0)" x="0 5 8 13 15 20 25 30 33 38 ">1/8 Factor</tspan></text>
<text xml:space="preserve" transform="translate(454.64,66.1711) rotate(-0,-0,-5.5)" font-family="FreeSans" font-weight="normal" font-style="normal" font-size="9"><tspan y="-1" fill="rgb(0,0,0)" x="0 5 8 13 18 20 25 30 35 38 43 ">1/16 Factor</tspan></text>
<text xml:space="preserve" transform="translate(454.64,82.0053) rotate(-0,-0,-5.5)" font-family="FreeSans" font-weight="normal" font-style="normal" font-size="9"><tspan y="-1" fill="rgb(0,0,0)" x="0 5 8 13 18 20 25 30 35 38 43 ">1/32 Factor</tspan></text>
<text xml:space="preserve" transform="translate(454.64,97.8395) rotate(-0,-0,-5.5)" font-family="FreeSans" font-weight="normal" font-style="normal" font-size="9"><tspan y="-1" fill="rgb(0,0,0)" x="0 5 8 13 18 20 25 30 35 38 43 ">1/64 Factor</tspan></text>
<text xml:space="preserve" transform="translate(454.64,113.674) rotate(-0,-0,-5.5)" font-family="FreeSans" font-weight="normal" font-style="normal" font-size="9"><tspan y="-1" fill="rgb(0,0,0)" x="0 5 8 13 18 23 25 30 35 40 43 48 ">1/128 Factor</tspan></text>
<text xml:space="preserve" transform="translate(454.64,129.508) rotate(-0,-0,-5.5)" font-family="FreeSans" font-weight="normal" font-style="normal" font-size="9"><tspan y="-1" fill="rgb(0,0,0)" x="0 5 8 13 18 23 25 30 35 40 43 48 ">1/256 Factor</tspan></text>
<text xml:space="preserve" transform="translate(454.64,145.342) rotate(-0,-0,-5.5)" font-family="FreeSans" font-weight="normal" font-style="normal" font-size="9"><tspan y="-1" fill="rgb(0,0,0)" x="0 5 8 13 18 23 25 30 35 40 43 48 ">1/512 Factor</tspan></text>
<text xml:space="preserve" transform="translate(454.64,161.176) rotate(-0,-0,-5.5)" font-family="FreeSans" font-weight="normal" font-style="normal" font-size="9"><tspan y="-1" fill="rgb(0,0,0)" x="0 5 8 13 18 23 28 30 35 40 45 48 53 ">1/1024 Factor</tspan></text>
<polyline fill="none" stroke="#000000" stroke-width="0.5" stroke-linecap="butt" stroke-linejoin="round" points="416.221,44.837 450.12,44.837"/>
<polyline fill="none" stroke="#ff0000" stroke-width="0.5" stroke-linecap="butt" stroke-linejoin="round" points="416.221,60.6711 450.12,60.6711"/>
<polyline fill="none" stroke="#00ff00" stroke-width="0.5" stroke-linecap="butt" stroke-linejoin="round" points="416.221,76.5053 450.12,76.5053"/>
<polyline fill="none" stroke="#0000ff" stroke-width="0.5" stroke-linecap="butt" stroke-linejoin="round" points="416.221,92.3395 450.12,92.3395"/>
<polyline fill="none" stroke="#ffff00" stroke-width="0.5" stroke-linecap="butt" stroke-linejoin="round" points="416.221,108.174 450.12,108.174"/>
<polyline fill="none" stroke="#ff00ff" stroke-width="0.5" stroke-linecap="butt" stroke-linejoin="round" points="416.221,124.008 450.12,124.008"/>
<polyline fill="none" stroke="#00ffff" stroke-width="0.5" stroke-linecap="butt" stroke-linejoin="round" points="416.221,139.842 450.12,139.842"/>
<polyline fill="none" stroke="#000000" stroke-width="0.5" stroke-linecap="butt" stroke-linejoin="round" points="416.221,155.676 450.12,155.676"/>
</g>
</g>
</svg>
